<mxfile host="app.diagrams.net" modified="2024-02-09T22:16:38.001Z" agent="Mozilla/5.0 (Windows NT 10.0; Win64; x64; rv:122.0) Gecko/20100101 Firefox/122.0" etag="tan17qSG78D53-WcUTb1" version="23.1.2" type="device">
  <diagram name="Page-1" id="iQI8kAt3NMhKkaGo9x8g">
    <mxGraphModel dx="725" dy="771" grid="1" gridSize="10" guides="1" tooltips="1" connect="1" arrows="1" fold="1" page="1" pageScale="1" pageWidth="850" pageHeight="1100" math="0" shadow="0">
      <root>
        <mxCell id="0" />
        <mxCell id="1" parent="0" />
        <mxCell id="nLKwYzN89PIMVmhUTfL9-1" value="Biblioteka" style="whiteSpace=wrap;html=1;align=center;" vertex="1" parent="1">
          <mxGeometry x="140" y="652" width="100" height="40" as="geometry" />
        </mxCell>
        <mxCell id="nLKwYzN89PIMVmhUTfL9-4" value="" style="edgeStyle=orthogonalEdgeStyle;rounded=0;orthogonalLoop=1;jettySize=auto;html=1;shape=link;" edge="1" parent="1">
          <mxGeometry relative="1" as="geometry">
            <mxPoint x="190" y="502" as="sourcePoint" />
            <mxPoint x="190" y="412" as="targetPoint" />
          </mxGeometry>
        </mxCell>
        <mxCell id="nLKwYzN89PIMVmhUTfL9-5" value="" style="edgeStyle=orthogonalEdgeStyle;rounded=0;orthogonalLoop=1;jettySize=auto;html=1;" edge="1" parent="1" target="nLKwYzN89PIMVmhUTfL9-1">
          <mxGeometry relative="1" as="geometry">
            <mxPoint x="190" y="562" as="sourcePoint" />
          </mxGeometry>
        </mxCell>
        <mxCell id="nLKwYzN89PIMVmhUTfL9-6" value="1, N" style="text;html=1;align=center;verticalAlign=middle;resizable=0;points=[];autosize=1;strokeColor=none;fillColor=none;" vertex="1" parent="1">
          <mxGeometry x="190" y="622" width="50" height="30" as="geometry" />
        </mxCell>
        <mxCell id="nLKwYzN89PIMVmhUTfL9-8" value="ima" style="shape=rhombus;double=1;perimeter=rhombusPerimeter;whiteSpace=wrap;html=1;align=center;" vertex="1" parent="1">
          <mxGeometry x="130" y="502" width="120" height="60" as="geometry" />
        </mxCell>
        <mxCell id="nLKwYzN89PIMVmhUTfL9-9" value="Knjiga" style="shape=ext;margin=3;double=1;whiteSpace=wrap;html=1;align=center;" vertex="1" parent="1">
          <mxGeometry x="140" y="370" width="100" height="40" as="geometry" />
        </mxCell>
        <mxCell id="nLKwYzN89PIMVmhUTfL9-11" value="nazivb" style="ellipse;whiteSpace=wrap;html=1;align=center;fontStyle=4;" vertex="1" parent="1">
          <mxGeometry x="90" y="612" width="100" height="40" as="geometry" />
        </mxCell>
        <mxCell id="nLKwYzN89PIMVmhUTfL9-12" value="adresa" style="ellipse;whiteSpace=wrap;html=1;align=center;" vertex="1" parent="1">
          <mxGeometry x="40" y="652" width="100" height="40" as="geometry" />
        </mxCell>
        <mxCell id="nLKwYzN89PIMVmhUTfL9-13" value="brtel" style="ellipse;whiteSpace=wrap;html=1;align=center;" vertex="1" parent="1">
          <mxGeometry x="70" y="692" width="100" height="40" as="geometry" />
        </mxCell>
        <mxCell id="nLKwYzN89PIMVmhUTfL9-14" value="idk" style="ellipse;whiteSpace=wrap;html=1;align=center;" vertex="1" parent="1">
          <mxGeometry x="70" y="330" width="100" height="40" as="geometry" />
        </mxCell>
        <mxCell id="nLKwYzN89PIMVmhUTfL9-15" value="nazk" style="ellipse;whiteSpace=wrap;html=1;align=center;" vertex="1" parent="1">
          <mxGeometry x="70" y="402" width="100" height="40" as="geometry" />
        </mxCell>
        <mxCell id="nLKwYzN89PIMVmhUTfL9-16" value="Autor" style="whiteSpace=wrap;html=1;align=center;" vertex="1" parent="1">
          <mxGeometry x="460" y="370" width="100" height="40" as="geometry" />
        </mxCell>
        <mxCell id="nLKwYzN89PIMVmhUTfL9-17" value="idautor" style="ellipse;whiteSpace=wrap;html=1;align=center;fontStyle=4;" vertex="1" parent="1">
          <mxGeometry x="530" y="330" width="100" height="40" as="geometry" />
        </mxCell>
        <mxCell id="nLKwYzN89PIMVmhUTfL9-18" value="imea" style="ellipse;whiteSpace=wrap;html=1;align=center;" vertex="1" parent="1">
          <mxGeometry x="560" y="370" width="100" height="40" as="geometry" />
        </mxCell>
        <mxCell id="nLKwYzN89PIMVmhUTfL9-19" value="preza" style="ellipse;whiteSpace=wrap;html=1;align=center;" vertex="1" parent="1">
          <mxGeometry x="540" y="410" width="100" height="40" as="geometry" />
        </mxCell>
        <mxCell id="nLKwYzN89PIMVmhUTfL9-20" value="datumr" style="ellipse;whiteSpace=wrap;html=1;align=center;" vertex="1" parent="1">
          <mxGeometry x="430" y="330" width="100" height="40" as="geometry" />
        </mxCell>
        <mxCell id="nLKwYzN89PIMVmhUTfL9-21" value="datums" style="ellipse;whiteSpace=wrap;html=1;align=center;" vertex="1" parent="1">
          <mxGeometry x="440" y="410" width="100" height="40" as="geometry" />
        </mxCell>
        <mxCell id="nLKwYzN89PIMVmhUTfL9-24" value="" style="edgeStyle=orthogonalEdgeStyle;rounded=0;orthogonalLoop=1;jettySize=auto;html=1;" edge="1" parent="1" source="nLKwYzN89PIMVmhUTfL9-22" target="nLKwYzN89PIMVmhUTfL9-9">
          <mxGeometry relative="1" as="geometry" />
        </mxCell>
        <mxCell id="nLKwYzN89PIMVmhUTfL9-25" style="edgeStyle=orthogonalEdgeStyle;rounded=0;orthogonalLoop=1;jettySize=auto;html=1;exitX=1;exitY=0.5;exitDx=0;exitDy=0;entryX=0;entryY=0.5;entryDx=0;entryDy=0;" edge="1" parent="1" source="nLKwYzN89PIMVmhUTfL9-22" target="nLKwYzN89PIMVmhUTfL9-16">
          <mxGeometry relative="1" as="geometry" />
        </mxCell>
        <mxCell id="nLKwYzN89PIMVmhUTfL9-22" value="napisao" style="shape=rhombus;perimeter=rhombusPerimeter;whiteSpace=wrap;html=1;align=center;" vertex="1" parent="1">
          <mxGeometry x="292" y="360" width="120" height="60" as="geometry" />
        </mxCell>
        <mxCell id="nLKwYzN89PIMVmhUTfL9-26" value="1, N" style="text;html=1;align=center;verticalAlign=middle;resizable=0;points=[];autosize=1;strokeColor=none;fillColor=none;" vertex="1" parent="1">
          <mxGeometry x="235" y="360" width="50" height="30" as="geometry" />
        </mxCell>
        <mxCell id="nLKwYzN89PIMVmhUTfL9-27" value="0, N" style="text;html=1;align=center;verticalAlign=middle;resizable=0;points=[];autosize=1;strokeColor=none;fillColor=none;" vertex="1" parent="1">
          <mxGeometry x="415" y="360" width="50" height="30" as="geometry" />
        </mxCell>
        <mxCell id="nLKwYzN89PIMVmhUTfL9-28" value="Kategorija" style="whiteSpace=wrap;html=1;align=center;" vertex="1" parent="1">
          <mxGeometry x="185" y="160" width="100" height="40" as="geometry" />
        </mxCell>
        <mxCell id="nLKwYzN89PIMVmhUTfL9-31" style="edgeStyle=orthogonalEdgeStyle;rounded=0;orthogonalLoop=1;jettySize=auto;html=1;exitX=0.5;exitY=1;exitDx=0;exitDy=0;entryX=0;entryY=0.5;entryDx=0;entryDy=0;" edge="1" parent="1" source="nLKwYzN89PIMVmhUTfL9-29" target="nLKwYzN89PIMVmhUTfL9-28">
          <mxGeometry relative="1" as="geometry" />
        </mxCell>
        <mxCell id="nLKwYzN89PIMVmhUTfL9-29" value="pripada" style="shape=rhombus;perimeter=rhombusPerimeter;whiteSpace=wrap;html=1;align=center;" vertex="1" parent="1">
          <mxGeometry x="40" y="60" width="120" height="60" as="geometry" />
        </mxCell>
        <mxCell id="nLKwYzN89PIMVmhUTfL9-30" style="edgeStyle=orthogonalEdgeStyle;rounded=0;orthogonalLoop=1;jettySize=auto;html=1;exitX=0;exitY=0.5;exitDx=0;exitDy=0;entryX=0.75;entryY=0;entryDx=0;entryDy=0;" edge="1" parent="1" source="nLKwYzN89PIMVmhUTfL9-29" target="nLKwYzN89PIMVmhUTfL9-9">
          <mxGeometry relative="1" as="geometry" />
        </mxCell>
        <mxCell id="nLKwYzN89PIMVmhUTfL9-33" value="0, N" style="text;html=1;align=center;verticalAlign=middle;resizable=0;points=[];autosize=1;strokeColor=none;fillColor=none;" vertex="1" parent="1">
          <mxGeometry x="140" y="148" width="50" height="30" as="geometry" />
        </mxCell>
        <mxCell id="nLKwYzN89PIMVmhUTfL9-35" value="nazkat" style="ellipse;shape=doubleEllipse;margin=3;whiteSpace=wrap;html=1;align=center;" vertex="1" parent="1">
          <mxGeometry x="195" y="120" width="100" height="40" as="geometry" />
        </mxCell>
        <mxCell id="nLKwYzN89PIMVmhUTfL9-40" value="" style="edgeStyle=orthogonalEdgeStyle;rounded=0;orthogonalLoop=1;jettySize=auto;html=1;entryX=0.5;entryY=1;entryDx=0;entryDy=0;" edge="1" parent="1" target="nLKwYzN89PIMVmhUTfL9-1">
          <mxGeometry relative="1" as="geometry">
            <mxPoint x="190" y="782" as="sourcePoint" />
          </mxGeometry>
        </mxCell>
        <mxCell id="nLKwYzN89PIMVmhUTfL9-41" value="1, N" style="text;html=1;align=center;verticalAlign=middle;resizable=0;points=[];autosize=1;strokeColor=none;fillColor=none;" vertex="1" parent="1">
          <mxGeometry x="185" y="692" width="50" height="30" as="geometry" />
        </mxCell>
        <mxCell id="nLKwYzN89PIMVmhUTfL9-44" value="" style="edgeStyle=orthogonalEdgeStyle;rounded=0;orthogonalLoop=1;jettySize=auto;html=1;" edge="1" parent="1" source="nLKwYzN89PIMVmhUTfL9-42" target="nLKwYzN89PIMVmhUTfL9-43">
          <mxGeometry relative="1" as="geometry" />
        </mxCell>
        <mxCell id="nLKwYzN89PIMVmhUTfL9-42" value="pripadacl" style="shape=rhombus;perimeter=rhombusPerimeter;whiteSpace=wrap;html=1;align=center;" vertex="1" parent="1">
          <mxGeometry x="130" y="782" width="120" height="60" as="geometry" />
        </mxCell>
        <mxCell id="nLKwYzN89PIMVmhUTfL9-43" value="Clan" style="whiteSpace=wrap;html=1;align=center;" vertex="1" parent="1">
          <mxGeometry x="340" y="792" width="100" height="40" as="geometry" />
        </mxCell>
        <mxCell id="nLKwYzN89PIMVmhUTfL9-45" value="clbroj" style="ellipse;whiteSpace=wrap;html=1;align=center;fontStyle=4;" vertex="1" parent="1">
          <mxGeometry x="242" y="832" width="100" height="40" as="geometry" />
        </mxCell>
        <mxCell id="nLKwYzN89PIMVmhUTfL9-46" value="imecl" style="ellipse;whiteSpace=wrap;html=1;align=center;" vertex="1" parent="1">
          <mxGeometry x="440" y="752" width="100" height="40" as="geometry" />
        </mxCell>
        <mxCell id="nLKwYzN89PIMVmhUTfL9-47" value="przcl" style="ellipse;whiteSpace=wrap;html=1;align=center;" vertex="1" parent="1">
          <mxGeometry x="440" y="792" width="100" height="40" as="geometry" />
        </mxCell>
        <mxCell id="nLKwYzN89PIMVmhUTfL9-48" value="adrcl" style="ellipse;whiteSpace=wrap;html=1;align=center;" vertex="1" parent="1">
          <mxGeometry x="440" y="832" width="100" height="40" as="geometry" />
        </mxCell>
        <mxCell id="nLKwYzN89PIMVmhUTfL9-49" value="brtelcl" style="ellipse;whiteSpace=wrap;html=1;align=center;" vertex="1" parent="1">
          <mxGeometry x="340" y="832" width="100" height="40" as="geometry" />
        </mxCell>
        <mxCell id="nLKwYzN89PIMVmhUTfL9-50" value="1, 1" style="text;html=1;align=center;verticalAlign=middle;resizable=0;points=[];autosize=1;strokeColor=none;fillColor=none;" vertex="1" parent="1">
          <mxGeometry x="302" y="785" width="40" height="30" as="geometry" />
        </mxCell>
        <mxCell id="nLKwYzN89PIMVmhUTfL9-55" value="0, N" style="text;html=1;align=center;verticalAlign=middle;resizable=0;points=[];autosize=1;strokeColor=none;fillColor=none;" vertex="1" parent="1">
          <mxGeometry x="302" y="757" width="50" height="30" as="geometry" />
        </mxCell>
        <mxCell id="nLKwYzN89PIMVmhUTfL9-57" value="KategorijaCl" style="whiteSpace=wrap;html=1;align=center;" vertex="1" parent="1">
          <mxGeometry x="700" y="610" width="100" height="40" as="geometry" />
        </mxCell>
        <mxCell id="nLKwYzN89PIMVmhUTfL9-58" value="Uplata" style="shape=ext;margin=3;double=1;whiteSpace=wrap;html=1;align=center;" vertex="1" parent="1">
          <mxGeometry x="630" y="470" width="100" height="40" as="geometry" />
        </mxCell>
        <mxCell id="nLKwYzN89PIMVmhUTfL9-60" style="edgeStyle=orthogonalEdgeStyle;rounded=0;orthogonalLoop=1;jettySize=auto;html=1;exitX=0.5;exitY=0;exitDx=0;exitDy=0;entryX=0;entryY=0.5;entryDx=0;entryDy=0;shape=link;" edge="1" parent="1" source="nLKwYzN89PIMVmhUTfL9-59" target="nLKwYzN89PIMVmhUTfL9-58">
          <mxGeometry relative="1" as="geometry" />
        </mxCell>
        <mxCell id="nLKwYzN89PIMVmhUTfL9-59" value="placa" style="shape=rhombus;double=1;perimeter=rhombusPerimeter;whiteSpace=wrap;html=1;align=center;" vertex="1" parent="1">
          <mxGeometry x="500" y="570" width="120" height="60" as="geometry" />
        </mxCell>
        <mxCell id="nLKwYzN89PIMVmhUTfL9-64" style="edgeStyle=orthogonalEdgeStyle;rounded=0;orthogonalLoop=1;jettySize=auto;html=1;exitX=0;exitY=0.5;exitDx=0;exitDy=0;entryX=0.75;entryY=0;entryDx=0;entryDy=0;" edge="1" parent="1" source="nLKwYzN89PIMVmhUTfL9-63" target="nLKwYzN89PIMVmhUTfL9-43">
          <mxGeometry relative="1" as="geometry">
            <Array as="points">
              <mxPoint x="560" y="773" />
              <mxPoint x="560" y="720" />
              <mxPoint x="415" y="720" />
            </Array>
          </mxGeometry>
        </mxCell>
        <mxCell id="nLKwYzN89PIMVmhUTfL9-65" style="edgeStyle=orthogonalEdgeStyle;rounded=0;orthogonalLoop=1;jettySize=auto;html=1;exitX=0.5;exitY=0;exitDx=0;exitDy=0;" edge="1" parent="1" source="nLKwYzN89PIMVmhUTfL9-63" target="nLKwYzN89PIMVmhUTfL9-57">
          <mxGeometry relative="1" as="geometry">
            <mxPoint x="750" y="660" as="targetPoint" />
          </mxGeometry>
        </mxCell>
        <mxCell id="nLKwYzN89PIMVmhUTfL9-63" value="pripadacl" style="shape=associativeEntity;whiteSpace=wrap;html=1;align=center;" vertex="1" parent="1">
          <mxGeometry x="610" y="743" width="140" height="60" as="geometry" />
        </mxCell>
        <mxCell id="nLKwYzN89PIMVmhUTfL9-66" style="edgeStyle=orthogonalEdgeStyle;rounded=0;orthogonalLoop=1;jettySize=auto;html=1;exitX=0.5;exitY=1;exitDx=0;exitDy=0;entryX=0.157;entryY=0.017;entryDx=0;entryDy=0;entryPerimeter=0;" edge="1" parent="1" source="nLKwYzN89PIMVmhUTfL9-59" target="nLKwYzN89PIMVmhUTfL9-63">
          <mxGeometry relative="1" as="geometry" />
        </mxCell>
        <mxCell id="nLKwYzN89PIMVmhUTfL9-67" value="iznos" style="ellipse;whiteSpace=wrap;html=1;align=center;" vertex="1" parent="1">
          <mxGeometry x="660" y="430" width="100" height="40" as="geometry" />
        </mxCell>
        <mxCell id="nLKwYzN89PIMVmhUTfL9-68" value="datumpl" style="ellipse;whiteSpace=wrap;html=1;align=center;fontStyle=4;" vertex="1" parent="1">
          <mxGeometry x="730" y="470" width="100" height="40" as="geometry" />
        </mxCell>
        <mxCell id="nLKwYzN89PIMVmhUTfL9-69" value="nazkatcl" style="ellipse;whiteSpace=wrap;html=1;align=center;fontStyle=4;" vertex="1" parent="1">
          <mxGeometry x="630" y="570" width="100" height="40" as="geometry" />
        </mxCell>
        <mxCell id="nLKwYzN89PIMVmhUTfL9-71" value="visclan" style="ellipse;whiteSpace=wrap;html=1;align=center;" vertex="1" parent="1">
          <mxGeometry x="730" y="570" width="100" height="40" as="geometry" />
        </mxCell>
        <mxCell id="nLKwYzN89PIMVmhUTfL9-73" style="edgeStyle=orthogonalEdgeStyle;rounded=0;orthogonalLoop=1;jettySize=auto;html=1;exitX=0.5;exitY=1;exitDx=0;exitDy=0;entryX=0.07;entryY=-0.05;entryDx=0;entryDy=0;entryPerimeter=0;" edge="1" parent="1" source="nLKwYzN89PIMVmhUTfL9-72" target="nLKwYzN89PIMVmhUTfL9-43">
          <mxGeometry relative="1" as="geometry" />
        </mxCell>
        <mxCell id="nLKwYzN89PIMVmhUTfL9-72" value="iznajmljuje" style="shape=rhombus;perimeter=rhombusPerimeter;whiteSpace=wrap;html=1;align=center;" vertex="1" parent="1">
          <mxGeometry x="302" y="642" width="120" height="60" as="geometry" />
        </mxCell>
        <mxCell id="nLKwYzN89PIMVmhUTfL9-74" value="Pozajmica" style="shape=ext;margin=3;double=1;whiteSpace=wrap;html=1;align=center;" vertex="1" parent="1">
          <mxGeometry x="360" y="540" width="100" height="40" as="geometry" />
        </mxCell>
        <mxCell id="nLKwYzN89PIMVmhUTfL9-78" style="edgeStyle=orthogonalEdgeStyle;rounded=0;orthogonalLoop=1;jettySize=auto;html=1;exitX=0;exitY=0;exitDx=0;exitDy=0;entryX=1;entryY=1;entryDx=0;entryDy=0;" edge="1" parent="1" source="nLKwYzN89PIMVmhUTfL9-75" target="nLKwYzN89PIMVmhUTfL9-9">
          <mxGeometry relative="1" as="geometry" />
        </mxCell>
        <mxCell id="nLKwYzN89PIMVmhUTfL9-75" value="&lt;div&gt;iznajmljuje&lt;/div&gt;&lt;div&gt;se&lt;br&gt;&lt;/div&gt;" style="shape=rhombus;double=1;perimeter=rhombusPerimeter;whiteSpace=wrap;html=1;align=center;" vertex="1" parent="1">
          <mxGeometry x="240" y="450" width="120" height="60" as="geometry" />
        </mxCell>
        <mxCell id="nLKwYzN89PIMVmhUTfL9-76" style="edgeStyle=orthogonalEdgeStyle;rounded=0;orthogonalLoop=1;jettySize=auto;html=1;exitX=0.5;exitY=0;exitDx=0;exitDy=0;entryX=0.16;entryY=1.05;entryDx=0;entryDy=0;entryPerimeter=0;" edge="1" parent="1" source="nLKwYzN89PIMVmhUTfL9-72" target="nLKwYzN89PIMVmhUTfL9-74">
          <mxGeometry relative="1" as="geometry" />
        </mxCell>
        <mxCell id="nLKwYzN89PIMVmhUTfL9-77" style="edgeStyle=orthogonalEdgeStyle;rounded=0;orthogonalLoop=1;jettySize=auto;html=1;exitX=1;exitY=1;exitDx=0;exitDy=0;entryX=0.18;entryY=0.05;entryDx=0;entryDy=0;entryPerimeter=0;shape=link;" edge="1" parent="1" source="nLKwYzN89PIMVmhUTfL9-75" target="nLKwYzN89PIMVmhUTfL9-74">
          <mxGeometry relative="1" as="geometry" />
        </mxCell>
        <mxCell id="nLKwYzN89PIMVmhUTfL9-79" value="datizn" style="ellipse;whiteSpace=wrap;html=1;align=center;fontStyle=4;" vertex="1" parent="1">
          <mxGeometry x="390" y="500" width="100" height="40" as="geometry" />
        </mxCell>
        <mxCell id="nLKwYzN89PIMVmhUTfL9-80" value="1, 1" style="text;html=1;align=center;verticalAlign=middle;resizable=0;points=[];autosize=1;strokeColor=none;fillColor=none;" vertex="1" parent="1">
          <mxGeometry x="375" y="575" width="40" height="30" as="geometry" />
        </mxCell>
        <mxCell id="nLKwYzN89PIMVmhUTfL9-81" value="0, N" style="text;html=1;align=center;verticalAlign=middle;resizable=0;points=[];autosize=1;strokeColor=none;fillColor=none;" vertex="1" parent="1">
          <mxGeometry x="195" y="407" width="50" height="30" as="geometry" />
        </mxCell>
        <mxCell id="nLKwYzN89PIMVmhUTfL9-82" value="1, N" style="text;html=1;align=center;verticalAlign=middle;resizable=0;points=[];autosize=1;strokeColor=none;fillColor=none;" vertex="1" parent="1">
          <mxGeometry x="372" y="757" width="50" height="30" as="geometry" />
        </mxCell>
        <mxCell id="nLKwYzN89PIMVmhUTfL9-83" value="0, N" style="text;html=1;align=center;verticalAlign=middle;resizable=0;points=[];autosize=1;strokeColor=none;fillColor=none;" vertex="1" parent="1">
          <mxGeometry x="740" y="652" width="50" height="30" as="geometry" />
        </mxCell>
        <mxCell id="nLKwYzN89PIMVmhUTfL9-84" value="0, N" style="text;html=1;align=center;verticalAlign=middle;resizable=0;points=[];autosize=1;strokeColor=none;fillColor=none;" vertex="1" parent="1">
          <mxGeometry x="590" y="713" width="50" height="30" as="geometry" />
        </mxCell>
        <mxCell id="nLKwYzN89PIMVmhUTfL9-85" value="1, 1" style="text;html=1;align=center;verticalAlign=middle;resizable=0;points=[];autosize=1;strokeColor=none;fillColor=none;" vertex="1" parent="1">
          <mxGeometry x="180" y="335" width="40" height="30" as="geometry" />
        </mxCell>
      </root>
    </mxGraphModel>
  </diagram>
</mxfile>
